<?xml version="1.0" standalone="no"?>
<!DOCTYPE svg PUBLIC "-//W3C//DTD SVG 20010904//EN"
 "http://www.w3.org/TR/2001/REC-SVG-20010904/DTD/svg10.dtd">
<svg version="1.0" xmlns="http://www.w3.org/2000/svg"
 width="941.000000pt" height="1280.000000pt" viewBox="0 0 941.000000 1280.000000"
 preserveAspectRatio="xMidYMid meet">
<metadata>
Created by potrace 1.15, written by Peter Selinger 2001-2017
</metadata>
<g transform="translate(0.000000,1280.000000) scale(0.100000,-0.100000)"
fill="#000000" stroke="none">
<path d="M4608 12763 c-20 -21 -41 -48 -46 -59 -8 -14 -25 -23 -51 -28 l-40
-6 24 -36 c17 -26 25 -50 25 -81 0 -38 -5 -50 -34 -79 -37 -37 -74 -43 -133
-22 -39 14 -44 10 -48 -34 -2 -31 -5 -33 -46 -36 -50 -4 -69 13 -69 61 0 29
-55 97 -79 97 -7 0 -11 -26 -11 -72 0 -61 -4 -77 -26 -110 -32 -45 -102 -94
-158 -109 -67 -18 -119 -4 -186 51 -32 27 -61 54 -65 60 -11 17 -44 11 -56
-11 -6 -13 -9 -45 -7 -76 6 -64 10 -62 -127 -87 -110 -21 -334 -93 -474 -153
-116 -50 -235 -119 -456 -266 -188 -125 -239 -165 -356 -273 -52 -47 -119
-104 -151 -125 -31 -21 -98 -85 -149 -141 -51 -57 -130 -143 -176 -192 l-83
-89 -33 37 c-22 25 -41 38 -62 39 l-29 2 -1 -90 c0 -103 -16 -146 -77 -207
-78 -78 -191 -106 -300 -74 -74 21 -86 36 -59 75 31 42 27 69 -10 85 -39 16
-60 11 -90 -20 -30 -32 -38 -114 -14 -150 18 -28 86 -63 122 -64 12 0 33 -4
47 -10 l26 -9 -29 -48 c-63 -104 -52 -115 86 -88 51 10 96 16 99 13 3 -4 -6
-38 -20 -76 -57 -158 -73 -370 -40 -530 38 -189 191 -394 356 -478 61 -31 74
-30 93 6 16 30 15 31 -16 48 -60 33 -110 73 -106 85 2 7 14 14 27 15 33 5 154
127 146 148 -3 9 -6 20 -6 25 0 15 -28 10 -72 -12 -119 -61 -257 31 -328 218
-32 82 -39 234 -13 282 10 19 23 35 28 35 6 1 13 -23 16 -52 6 -46 30 -102 45
-102 3 0 18 7 33 15 35 18 42 12 29 -26 -14 -41 -6 -66 51 -145 28 -38 56 -77
63 -87 11 -16 17 -17 40 -6 34 15 58 65 65 134 5 52 7 53 42 60 48 9 95 39
109 70 13 27 14 26 -70 40 -52 8 -128 62 -165 118 -56 84 -77 151 -77 252 -1
79 3 96 26 141 14 27 33 56 42 63 13 11 16 9 20 -11 19 -102 19 -103 54 -106
20 -2 45 5 68 18 42 26 64 20 64 -17 0 -37 33 -89 67 -106 72 -36 116 -28 95
18 -7 15 -12 71 -12 133 l0 108 46 12 c38 10 48 18 60 48 19 45 12 64 -21 64
-39 0 -65 18 -81 55 -23 57 7 106 68 108 26 2 36 -4 55 -32 13 -19 23 -47 23
-62 0 -29 1 -29 58 -29 97 1 172 49 154 100 -3 8 -16 29 -28 47 -21 28 -24 43
-24 127 0 92 1 97 38 158 85 144 295 301 657 495 330 177 593 263 799 263 39
0 125 -9 190 -20 105 -17 126 -23 173 -56 89 -61 153 -152 153 -217 0 -70 -75
-137 -153 -137 -34 0 -45 7 -92 57 l-54 58 -12 -30 c-6 -17 -14 -54 -17 -84
-6 -69 16 -113 70 -140 47 -23 77 -17 146 28 l46 30 33 -30 c64 -56 162 -27
190 56 7 22 15 46 18 52 3 10 10 10 29 1 23 -10 30 -7 72 27 26 21 60 59 76
84 27 42 29 52 25 111 -5 74 -24 118 -91 204 -25 32 -46 63 -46 68 0 5 22 40
49 79 52 73 75 130 86 211 9 67 22 67 35 1 17 -82 54 -155 114 -225 28 -33 55
-66 60 -73 7 -9 -6 -28 -43 -64 -70 -69 -95 -125 -95 -221 0 -61 4 -83 24
-118 34 -59 63 -76 145 -82 68 -5 69 -6 76 -36 3 -17 14 -45 25 -62 17 -29 23
-32 69 -32 27 0 68 9 91 19 41 18 41 18 80 -5 49 -30 116 -32 161 -4 39 24 50
43 58 106 8 56 -14 124 -39 124 -8 0 -29 -20 -45 -44 -34 -49 -46 -56 -103
-56 -55 0 -102 31 -128 85 -18 38 -20 50 -11 78 30 89 112 177 205 218 75 33
264 46 418 30 123 -14 223 -34 242 -50 6 -5 39 -16 73 -25 232 -60 749 -361
925 -539 103 -104 140 -177 146 -293 4 -82 4 -84 -27 -119 -37 -42 -37 -49
-11 -93 25 -41 78 -64 138 -60 45 3 46 4 59 48 22 78 81 103 128 55 49 -48 18
-129 -55 -144 -26 -5 -36 -13 -38 -30 -4 -29 18 -53 69 -76 l40 -19 -4 -115
c-2 -64 -7 -126 -11 -138 -10 -27 5 -29 68 -12 58 16 96 58 96 107 0 58 17 66
64 31 46 -34 65 -36 96 -11 15 12 24 33 27 65 4 29 10 46 17 44 19 -6 55 -79
67 -136 21 -103 -20 -271 -85 -348 -38 -43 -147 -103 -189 -103 -14 0 -29 -5
-33 -11 -11 -19 48 -69 103 -86 l53 -17 0 -57 c0 -51 4 -63 31 -94 40 -45 72
-46 89 -5 7 17 25 48 40 69 51 70 63 101 56 148 l-6 43 30 -15 c16 -8 34 -15
39 -15 16 0 33 40 40 94 8 68 30 68 54 1 40 -114 -10 -301 -112 -416 -70 -80
-152 -100 -245 -58 -52 23 -66 19 -66 -18 0 -19 17 -43 62 -86 34 -32 73 -63
86 -68 34 -13 24 -29 -43 -70 -32 -19 -61 -41 -63 -48 -5 -14 36 -61 53 -61
22 0 152 100 216 166 78 82 138 180 175 289 25 70 29 98 32 225 3 143 3 146
-32 258 -34 107 -46 182 -28 182 4 -1 34 -7 67 -15 79 -19 124 -19 132 0 3 9
-8 38 -26 66 -43 70 -41 79 19 78 40 -1 57 4 85 25 73 56 98 161 50 206 -35
32 -91 33 -116 1 -19 -23 -19 -24 6 -66 28 -48 27 -49 -43 -84 -130 -66 -309
10 -374 157 -18 39 -20 59 -15 134 l6 88 -26 0 c-18 0 -40 -14 -70 -45 -23
-25 -44 -45 -46 -45 -2 0 -43 46 -90 103 -211 252 -566 559 -899 778 -279 183
-683 348 -920 375 l-58 7 0 64 c0 70 -12 103 -37 103 -9 0 -40 -23 -69 -50
-63 -60 -106 -80 -171 -80 -62 0 -123 31 -174 88 l-41 47 4 77 c3 76 2 78 -20
78 -33 0 -68 -43 -82 -101 l-12 -49 -55 0 -55 0 6 33 c7 40 0 50 -26 36 -32
-17 -102 -14 -135 6 -55 32 -70 105 -33 152 46 58 9 84 -73 52 -27 -11 -50
-18 -51 -17 -32 76 -91 148 -122 148 -6 0 -26 -17 -46 -37z"/>
<path d="M4610 12219 c-30 -44 -53 -86 -53 -93 0 -16 124 -177 134 -174 9 4
129 156 129 164 0 16 -137 184 -151 184 -3 0 -30 -36 -59 -81z"/>
<path d="M5505 12035 c-5 -2 -30 -9 -55 -15 -55 -15 -44 -22 70 -45 114 -23
321 -84 477 -141 319 -116 784 -361 983 -519 72 -57 110 -78 110 -60 0 3 -11
27 -24 53 -69 134 -375 354 -741 532 -290 141 -385 170 -630 190 -123 10 -172
11 -190 5z"/>
<path d="M3625 12024 c-16 -3 -55 -13 -85 -23 -30 -11 -95 -31 -145 -46 -400
-119 -916 -434 -1055 -643 -61 -92 -45 -86 189 67 231 151 411 255 559 321
213 95 606 228 802 271 109 23 119 28 94 43 -19 11 -299 18 -359 10z"/>
<path d="M5198 11879 c-10 -5 -22 -27 -28 -49 -18 -66 8 -128 60 -150 57 -24
100 13 133 113 15 42 82 4 116 -66 26 -54 26 -90 0 -147 -50 -110 -129 -145
-228 -99 -42 18 -47 19 -83 4 -87 -34 -178 -6 -224 70 -19 32 -32 41 -75 52
-64 16 -111 50 -146 106 -15 23 -28 44 -30 46 -1 2 -33 -28 -69 -68 -37 -40
-81 -79 -98 -88 -17 -9 -58 -44 -91 -78 -73 -76 -104 -86 -166 -55 -46 24 -76
23 -149 -6 -56 -21 -87 -15 -135 28 -103 90 -99 238 7 298 43 24 57 18 58 -23
0 -10 7 -31 15 -47 30 -57 87 -66 137 -21 30 27 33 34 33 89 0 83 -12 95 -89
87 -181 -19 -323 -53 -428 -102 -81 -37 -90 -49 -102 -124 -4 -20 -15 -44 -25
-53 -18 -16 -21 -16 -53 12 -31 28 -36 29 -58 16 -35 -19 -49 -17 -91 12 l-38
26 -83 -43 c-107 -56 -191 -136 -208 -199 -7 -25 -14 -50 -15 -56 -2 -7 -28
-15 -57 -18 -29 -4 -74 -12 -100 -17 -42 -10 -48 -9 -68 11 -13 13 -30 20 -41
17 -59 -16 -439 -269 -459 -307 -9 -16 -6 -24 15 -42 22 -19 25 -29 20 -55 -3
-18 -1 -34 5 -38 18 -11 41 16 70 81 52 114 172 179 263 141 36 -16 37 -16 31
-61 -14 -98 43 -151 161 -150 75 0 119 17 168 62 30 29 33 54 12 92 -8 14 -14
44 -15 67 0 76 76 141 180 152 l55 6 6 46 c12 82 53 122 158 153 30 9 56 16
58 16 2 0 3 -16 3 -35 0 -53 23 -88 78 -118 91 -49 164 -60 382 -54 205 6 319
23 447 68 50 18 79 38 140 97 113 107 118 110 151 83 211 -170 351 -224 631
-243 325 -21 524 24 545 126 4 14 8 37 11 51 7 35 42 33 115 -6 62 -33 93 -75
108 -145 7 -36 11 -39 42 -42 104 -7 157 -41 192 -120 l19 -42 -28 -50 -28
-49 21 -28 c55 -74 200 -106 287 -64 59 28 75 65 58 128 -16 62 -5 73 74 73
55 0 69 -4 122 -39 52 -33 65 -48 91 -103 32 -68 54 -94 72 -83 5 3 10 17 10
31 0 14 9 42 20 64 l20 39 -83 65 c-91 71 -204 143 -313 200 -59 31 -75 36
-92 27 -43 -23 -227 -1 -243 29 -4 8 -15 36 -24 62 -21 61 -104 138 -201 186
l-73 36 -42 -19 c-25 -12 -60 -18 -89 -17 -36 1 -51 -3 -65 -18 -10 -11 -24
-20 -31 -20 -22 0 -44 30 -44 59 0 61 -20 90 -79 120 -99 49 -210 80 -386 106
-117 17 -106 17 -127 4z"/>
<path d="M4582 11458 c-50 -46 -100 -82 -141 -101 -91 -41 -257 -77 -386 -84
-149 -7 -374 11 -429 36 -57 25 -125 87 -143 130 -13 31 -17 33 -51 28 -69
-11 -135 -115 -83 -132 74 -23 96 -114 40 -166 -44 -41 -80 -39 -116 6 -15 19
-30 45 -33 57 -10 42 -69 36 -124 -13 -48 -42 -55 -80 -22 -120 39 -46 34 -75
-22 -129 -56 -54 -102 -70 -204 -70 -61 0 -81 4 -108 23 -56 38 -75 72 -74
133 l2 54 -42 0 c-83 -1 -167 -64 -182 -137 -5 -25 -2 -32 14 -37 70 -23 98
-99 48 -131 -39 -26 -98 1 -132 61 -11 18 -13 18 -47 2 -39 -18 -73 -61 -63
-77 4 -6 33 -24 66 -42 64 -34 83 -56 94 -106 7 -30 3 -38 -43 -86 -28 -30
-51 -59 -51 -65 0 -13 25 -20 80 -24 25 -2 35 -8 34 -19 -1 -8 -71 -107 -156
-220 -173 -229 -288 -398 -288 -422 0 -21 74 -71 93 -64 8 3 29 32 47 64 119
213 525 659 808 886 146 118 399 280 575 369 120 60 189 84 347 119 188 42
262 39 367 -15 49 -24 80 -47 95 -71 43 -66 70 -52 109 56 39 107 70 102 88
-15 5 -38 14 -72 18 -76 4 -4 38 -10 76 -13 63 -4 69 -3 88 21 18 24 23 25 51
14 38 -14 48 -5 48 46 0 45 25 90 55 98 34 9 40 2 60 -71 26 -97 72 -123 102
-59 14 28 32 42 88 69 83 39 167 59 221 52 80 -10 289 -59 353 -83 149 -56
531 -277 646 -373 33 -28 112 -93 175 -145 224 -183 585 -584 708 -787 21 -34
45 -67 54 -72 23 -15 88 28 88 57 0 30 -196 319 -319 471 -110 136 -136 173
-128 182 4 3 30 8 58 11 68 6 73 24 20 72 -35 33 -41 43 -41 79 0 65 22 97 91
131 52 27 59 34 54 53 -10 33 -52 67 -83 67 -20 -1 -34 -11 -55 -41 -32 -47
-50 -56 -83 -40 -59 27 -56 99 6 131 24 12 40 28 40 38 0 29 -44 95 -78 118
-32 22 -127 42 -140 30 -3 -4 -5 -28 -3 -54 3 -60 -27 -107 -89 -141 -105 -59
-276 -6 -334 102 -19 34 -19 34 8 73 14 21 26 49 26 61 0 49 -95 121 -147 111
-9 -2 -21 -20 -27 -43 -8 -27 -22 -47 -45 -62 -45 -30 -54 -29 -96 12 -53 53
-49 89 15 148 52 48 55 61 21 101 -20 23 -89 58 -104 53 -6 -2 -23 -25 -37
-53 -45 -84 -132 -122 -325 -144 -126 -14 -212 -12 -269 5 -27 8 -64 15 -83
15 -41 0 -170 26 -233 47 -84 28 -165 72 -234 128 -38 30 -77 55 -87 55 -11 0
-54 -32 -97 -72z"/>
<path d="M6026 11287 c-27 -20 -18 -75 17 -101 21 -15 32 -18 44 -10 45 28 41
84 -7 109 -35 18 -32 18 -54 2z"/>
<path d="M3307 11262 c-44 -46 -34 -92 19 -92 36 0 74 28 74 54 0 66 -48 85
-93 38z"/>
<path d="M7349 10961 c-20 -16 -22 -23 -14 -47 8 -21 18 -30 39 -32 44 -5 64
49 30 82 -20 20 -27 20 -55 -3z"/>
<path d="M1994 10945 c-27 -41 5 -86 49 -70 24 10 42 62 27 80 -19 23 -57 18
-76 -10z"/>
<path d="M2462 10888 c-16 -16 -15 -53 3 -68 17 -14 33 -6 45 24 15 40 -20 72
-48 44z"/>
<path d="M6897 10894 c-12 -13 -8 -51 8 -64 13 -10 19 -9 36 6 27 24 21 58
-11 62 -14 2 -29 0 -33 -4z"/>
<path d="M7150 10844 c0 -4 5 -24 11 -45 16 -51 -1 -73 -47 -65 -63 12 -114
-35 -114 -104 0 -40 47 -90 84 -90 14 0 26 -4 26 -9 0 -12 -64 -67 -100 -86
-17 -9 -30 -19 -30 -24 0 -22 38 -18 103 11 66 30 80 33 175 33 l104 0 29 33
c26 29 30 39 25 73 -3 21 -9 57 -12 78 -4 30 -14 46 -41 67 -21 16 -45 49 -59
80 l-24 54 -65 0 c-36 0 -65 -3 -65 -6z"/>
<path d="M2096 10785 c-15 -30 -42 -67 -60 -82 -28 -24 -34 -38 -45 -106 -12
-72 -11 -80 6 -99 32 -36 56 -42 163 -42 95 -1 110 -4 161 -29 58 -30 104 -33
104 -8 0 8 -13 18 -29 22 -28 8 -106 75 -106 91 0 4 9 8 21 8 52 0 88 39 89
96 0 64 -32 89 -120 96 l-35 3 2 53 2 52 -63 0 -64 0 -26 -55z"/>
<path d="M7777 10564 c-28 -24 -47 -28 -118 -24 -33 1 -39 -3 -59 -37 -26 -48
-70 -78 -135 -94 -27 -7 -51 -13 -52 -13 -1 -1 9 -24 22 -51 30 -58 31 -96 6
-151 -18 -39 -65 -84 -104 -97 -11 -4 -39 4 -67 18 -27 14 -52 25 -55 25 -13
0 -2 -25 29 -63 18 -23 61 -80 94 -128 86 -122 75 -117 186 -80 52 17 106 31
120 31 22 0 26 4 26 30 0 26 -7 32 -53 55 -66 31 -96 62 -103 107 l-6 35 58 7
c78 9 135 38 183 92 53 60 72 119 78 239 6 119 -4 139 -50 99z"/>
<path d="M1584 10554 c-4 -15 -4 -73 -1 -130 6 -123 27 -176 91 -229 57 -46
105 -65 166 -65 61 0 72 -16 45 -66 -21 -39 -65 -75 -118 -98 -20 -8 -37 -22
-37 -30 0 -19 27 -46 47 -46 8 0 56 -14 105 -30 72 -24 93 -28 105 -18 8 6 51
63 96 125 126 175 116 158 87 149 -14 -4 -50 -10 -80 -13 -47 -4 -59 -2 -84
18 -54 43 -70 125 -41 210 17 48 14 69 -10 69 -43 0 -116 44 -150 90 l-35 48
-58 -5 c-52 -5 -59 -3 -81 21 -31 33 -39 33 -47 0z"/>
<path d="M815 10418 c5 -32 1 -59 -13 -98 -11 -30 -30 -83 -42 -117 l-23 -62
22 -42 c28 -53 22 -69 -26 -69 -39 0 -113 -36 -120 -57 -3 -7 23 -26 56 -43
67 -34 98 -73 127 -159 23 -73 15 -163 -21 -230 -46 -84 -76 -97 -54 -23 6 22
9 52 5 66 -6 23 -12 26 -46 26 l-40 0 6 59 c7 59 7 59 -37 106 -24 27 -62 56
-84 66 -49 23 -154 25 -194 5 -39 -20 -87 -77 -101 -120 -10 -30 -8 -42 10
-83 31 -71 46 -83 100 -83 61 0 86 26 96 98 8 60 18 64 63 26 49 -41 79 -102
92 -184 22 -141 -9 -296 -73 -364 l-29 -31 5 80 c6 75 -3 148 -19 163 -4 4
-48 -36 -99 -89 -59 -63 -101 -99 -120 -103 -42 -10 -86 -58 -86 -95 0 -21 5
-31 15 -31 24 0 87 -35 111 -62 47 -51 56 -85 52 -192 -4 -92 -10 -118 -65
-281 -84 -247 -103 -311 -103 -341 0 -14 -5 -34 -10 -45 -6 -10 -15 -45 -21
-76 -5 -32 -18 -87 -28 -123 -10 -36 -26 -126 -35 -200 -9 -74 -30 -238 -47
-365 -30 -225 -30 -242 -35 -734 -4 -416 -2 -521 10 -605 9 -55 20 -176 25
-267 6 -91 15 -178 21 -193 5 -15 10 -58 10 -96 0 -38 4 -80 10 -94 5 -14 23
-128 39 -253 30 -220 61 -389 102 -540 11 -40 26 -109 35 -155 9 -45 27 -109
41 -143 20 -47 26 -83 30 -165 l5 -105 -41 -52 c-30 -37 -53 -55 -84 -65 -37
-11 -42 -17 -45 -46 -5 -45 38 -87 99 -96 97 -15 99 -16 99 -44 1 -37 31 -101
68 -139 52 -56 57 -49 67 99 4 49 10 90 15 93 13 8 61 -71 82 -137 26 -80 28
-249 5 -321 -18 -55 -62 -123 -88 -138 -15 -8 -20 -3 -29 31 -36 135 -225 48
-195 -90 22 -101 181 -137 285 -65 42 29 80 91 80 130 0 20 12 40 40 66 l40
38 0 107 0 107 24 -22 c58 -54 86 -168 67 -269 -24 -128 -85 -215 -177 -253
-61 -26 -70 -39 -49 -79 16 -32 58 -50 119 -51 77 -1 81 -7 41 -69 -44 -70
-44 -103 0 -189 30 -58 35 -75 29 -109 -8 -48 4 -57 48 -39 78 34 135 131 144
244 8 94 8 94 42 81 42 -16 77 -3 95 35 19 40 11 86 -26 150 -19 33 -25 53
-21 78 3 19 -1 55 -9 82 -8 26 -11 47 -7 47 5 0 34 -10 65 -22 l58 -22 18 23
c40 49 37 70 -20 118 -28 25 -51 48 -51 53 0 4 17 6 38 3 47 -6 87 23 101 73
10 37 0 84 -18 84 -5 0 -39 -14 -76 -31 -63 -30 -69 -31 -123 -20 -73 15 -166
59 -219 105 -44 38 -93 124 -93 163 0 23 1 23 51 -12 61 -42 108 -52 168 -36
43 11 45 11 75 -18 47 -46 100 -64 187 -64 120 -1 163 40 82 78 -19 9 -44 28
-56 42 -12 14 -50 44 -84 67 l-62 42 39 53 c34 45 40 60 40 103 l0 50 -32 -6
c-18 -3 -61 -9 -95 -12 -57 -6 -67 -4 -137 31 -143 70 -281 213 -293 302 -3
24 -1 43 5 47 6 4 36 -16 66 -43 41 -37 71 -54 113 -66 32 -9 90 -27 128 -40
39 -14 101 -32 140 -40 38 -9 80 -22 92 -30 40 -26 74 -82 81 -132 8 -54 29
-64 49 -23 8 18 9 38 2 72 -9 42 -8 50 12 78 22 29 22 31 6 59 -24 41 -22 46
25 74 62 36 142 121 177 187 54 102 76 251 50 345 -6 22 -32 85 -57 140 -72
157 -62 255 24 255 28 0 35 5 40 25 4 15 1 32 -6 40 -18 22 -89 19 -129 -6
-30 -18 -32 -23 -27 -55 5 -25 3 -39 -9 -50 -8 -8 -15 -29 -15 -46 0 -28 -2
-30 -30 -25 -16 4 -31 3 -34 -1 -2 -4 7 -42 21 -84 14 -41 23 -83 20 -92 -4
-9 -20 -19 -37 -23 -41 -8 -34 -22 25 -45 107 -42 135 -83 135 -195 0 -116
-68 -225 -173 -277 -74 -38 -84 -35 -93 22 -7 52 -29 112 -41 112 -4 0 -41
-36 -83 -79 -87 -92 -120 -106 -236 -99 -53 4 -83 12 -124 34 -51 27 -115 82
-107 90 2 2 29 -1 61 -7 59 -12 136 0 136 22 0 13 -86 124 -133 171 -43 43
-45 48 -15 48 28 0 84 44 103 80 19 38 19 90 -1 118 -14 20 -21 22 -63 16
-138 -18 -354 182 -441 407 -70 181 -91 352 -71 571 20 211 58 320 150 421
l53 57 -4 144 c-2 80 -6 148 -10 151 -13 13 -73 -30 -90 -65 -29 -58 -24 -117
17 -180 37 -57 31 -79 -10 -40 -75 71 -71 187 9 293 l26 34 -29 27 c-40 38
-85 126 -111 216 -31 106 -40 402 -16 540 36 205 147 461 244 560 91 93 159
100 280 26 33 -20 65 -36 71 -36 16 0 24 44 19 104 -5 63 -36 112 -84 132 -41
17 -43 31 -6 40 34 8 166 140 158 159 -13 34 -213 50 -252 20 -25 -19 -44 -19
-44 0 0 22 93 91 157 115 38 15 90 24 149 27 110 7 169 -10 246 -68 29 -21 58
-39 65 -39 19 0 26 43 13 89 -14 55 -7 64 44 56 88 -15 150 -67 203 -168 24
-45 28 -64 28 -139 0 -72 -3 -91 -21 -115 -24 -33 -74 -60 -126 -68 -21 -3
-38 -12 -38 -18 0 -7 18 -31 40 -52 44 -43 46 -55 25 -135 -14 -51 -14 -56 3
-70 14 -12 17 -26 14 -63 -5 -57 9 -95 48 -132 53 -50 145 -28 138 34 -3 24
-7 26 -51 25 -56 0 -62 10 -55 109 4 51 17 88 73 207 67 140 69 148 69 220 -1
84 -22 166 -64 250 -45 89 -73 115 -150 145 -39 15 -72 31 -76 36 -3 5 4 22
15 38 23 32 26 53 11 82 -8 13 -7 31 1 58 15 49 6 79 -17 60 -9 -7 -26 -34
-39 -60 -55 -108 -145 -142 -491 -183 -80 -9 -136 -22 -163 -35 -45 -23 -71
-27 -71 -10 0 6 16 41 35 78 110 209 336 312 520 236 84 -35 89 -34 83 18 -8
68 -35 114 -79 133 -44 20 -43 29 6 38 19 4 49 19 67 34 17 15 59 45 92 67 33
22 61 45 63 51 13 42 -177 54 -262 16 -27 -13 -57 -30 -67 -39 -17 -15 -21
-15 -57 5 -43 24 -91 28 -140 11 -38 -14 -46 -8 -37 26 11 44 93 122 165 158
58 28 75 32 146 32 44 -1 97 -5 118 -9 37 -9 37 -9 37 24 0 27 -9 42 -46 76
-26 23 -43 47 -40 53 4 6 27 25 52 43 48 35 52 54 18 106 -21 31 -43 28 -113
-19 -34 -23 -64 -39 -67 -36 -3 3 14 50 39 105 72 156 82 227 42 289 -13 20
-23 24 -52 21 l-35 -3 -24 95 c-14 57 -35 111 -52 135 -29 41 -90 89 -130 100
-23 7 -23 5 -17 -37z"/>
<path d="M8518 10435 c-69 -46 -116 -129 -138 -242 l-13 -63 -41 0 c-38 0 -43
-3 -54 -33 -28 -77 0 -208 67 -310 61 -95 54 -100 -46 -32 -36 25 -72 45 -79
45 -18 0 -54 -58 -54 -86 0 -13 16 -32 45 -52 25 -17 45 -38 45 -46 0 -8 -15
-24 -33 -35 -49 -30 -76 -104 -43 -117 7 -3 40 2 72 12 136 39 274 -19 363
-153 17 -25 31 -50 31 -54 0 -4 -30 -5 -67 -3 -46 4 -84 1 -118 -10 -43 -13
-51 -13 -65 -1 -29 26 -108 55 -167 61 -48 5 -69 2 -106 -14 -26 -12 -47 -26
-47 -32 0 -6 14 -19 31 -28 18 -9 55 -37 84 -62 33 -29 71 -50 101 -58 l49
-13 -35 -20 c-43 -25 -77 -72 -84 -119 -10 -54 4 -66 52 -47 96 38 238 28 357
-27 76 -34 149 -106 184 -180 36 -75 47 -120 29 -113 -59 25 -170 50 -313 72
-93 14 -193 32 -221 40 -79 23 -144 71 -179 135 -47 84 -93 73 -49 -11 14 -28
14 -33 0 -54 -23 -35 -20 -61 11 -83 14 -10 23 -24 19 -30 -3 -6 -37 -22 -75
-37 -139 -53 -216 -191 -216 -390 0 -95 2 -105 39 -185 89 -198 90 -201 91
-280 0 -81 -4 -85 -62 -66 -32 10 -53 -33 -34 -68 21 -38 56 -49 97 -30 55 26
84 77 84 148 0 44 4 62 17 71 16 12 16 17 -2 90 l-19 77 42 35 c49 40 53 58
15 68 -110 26 -167 94 -167 199 1 137 109 265 246 291 52 10 58 2 42 -52 -15
-49 -11 -83 10 -83 6 0 31 14 53 30 120 88 342 95 477 16 43 -25 101 -84 92
-93 -2 -2 -21 0 -43 6 -50 14 -181 14 -222 0 -17 -6 -31 -18 -31 -26 0 -24
129 -151 156 -155 39 -5 33 -21 -17 -45 -34 -16 -50 -30 -58 -54 -14 -40 -15
-169 -1 -169 6 0 45 17 88 39 42 21 90 41 105 45 80 19 206 -101 292 -277 146
-300 179 -653 88 -940 -19 -61 -35 -90 -74 -133 -27 -30 -49 -60 -49 -67 0 -7
12 -29 26 -48 85 -113 86 -204 3 -273 -17 -15 -34 -25 -36 -22 -3 3 9 26 26
52 39 60 42 120 8 185 -23 43 -67 72 -84 55 -5 -4 -10 -68 -11 -142 l-4 -134
52 -57 c111 -125 153 -266 153 -518 0 -248 -46 -457 -137 -618 -52 -93 -151
-196 -228 -238 -55 -30 -72 -34 -133 -33 -40 0 -73 -4 -77 -10 -4 -6 -8 -33
-8 -59 0 -77 36 -129 98 -142 17 -3 32 -10 32 -14 0 -5 -28 -39 -61 -77 -34
-38 -73 -84 -87 -103 -26 -33 -26 -34 -7 -48 16 -11 37 -13 93 -8 40 3 80 8
90 11 9 3 -3 -13 -28 -37 -92 -86 -231 -122 -321 -82 -55 25 -114 75 -145 125
-38 60 -76 49 -89 -27 -15 -97 -18 -99 -91 -66 -56 25 -121 85 -146 135 -22
42 -37 180 -25 228 9 36 66 88 127 115 49 22 53 26 36 36 -56 35 -56 37 -36
99 35 111 35 108 -5 108 -32 0 -35 3 -35 28 0 16 -6 37 -14 47 -9 13 -11 25
-5 37 22 41 -44 91 -113 86 l-43 -3 -3 -43 -3 -44 43 4 c42 3 43 2 56 -37 19
-57 9 -111 -43 -231 -60 -138 -71 -193 -57 -293 18 -130 45 -186 126 -266 40
-38 89 -83 110 -100 36 -28 37 -32 26 -57 -11 -23 -10 -35 3 -70 11 -28 14
-58 10 -85 -7 -52 3 -93 23 -93 16 0 19 7 29 63 7 42 53 100 96 123 16 8 95
30 175 49 181 44 229 64 285 121 74 76 91 49 39 -62 -42 -88 -140 -183 -238
-232 -66 -32 -85 -37 -146 -37 -39 0 -86 4 -103 9 -30 8 -34 6 -43 -18 -12
-32 2 -72 49 -140 17 -25 31 -47 31 -50 0 -3 -15 -12 -32 -20 -18 -7 -62 -39
-98 -71 -36 -31 -75 -62 -88 -68 -29 -14 -24 -28 19 -49 74 -38 209 -10 281
59 25 24 30 25 57 13 54 -22 96 -15 166 29 55 35 65 39 65 23 0 -32 -49 -115
-98 -165 -26 -26 -76 -62 -111 -79 -79 -40 -156 -42 -244 -8 -76 29 -91 23
-85 -33 3 -24 13 -55 23 -70 15 -23 24 -27 66 -27 63 0 64 -18 4 -57 -50 -31
-63 -59 -44 -95 25 -47 60 -50 126 -11 l46 27 -7 -25 c-5 -13 -11 -58 -13 -99
-4 -51 -11 -82 -25 -100 -51 -70 -52 -134 -2 -181 22 -21 28 -22 57 -11 18 7
37 14 42 15 6 1 13 -36 16 -88 7 -98 11 -112 46 -166 21 -32 104 -89 130 -89
6 0 10 19 9 43 0 28 12 68 37 123 20 45 37 88 37 96 0 8 -18 43 -41 78 -22 34
-38 65 -35 68 3 3 39 8 80 11 60 5 80 11 100 30 41 39 34 64 -25 91 -113 51
-180 157 -187 296 -5 97 13 162 58 215 l31 34 -3 -97 -3 -97 41 -43 c29 -30
43 -55 47 -83 8 -50 52 -113 96 -139 25 -15 53 -20 106 -20 115 -1 155 34 155
134 0 91 -48 140 -124 126 -39 -8 -52 -20 -62 -61 -11 -48 -14 -49 -55 -9
-101 99 -109 388 -14 527 14 20 30 37 35 37 6 0 10 -24 11 -52 1 -80 14 -147
33 -166 16 -16 18 -16 27 0 5 9 25 38 44 63 29 38 35 54 35 95 l0 50 68 0 c75
0 103 13 127 60 23 45 19 59 -27 79 -52 23 -101 73 -122 123 -25 58 -20 160
10 243 14 39 31 88 36 110 6 22 16 63 23 90 13 48 29 116 75 321 11 50 20 109
20 130 0 22 13 103 29 182 27 130 64 431 106 862 10 99 16 249 15 375 -1 116
-1 230 0 255 1 25 -3 187 -8 360 -9 264 -15 347 -40 515 -17 110 -35 252 -42
315 -6 63 -20 142 -30 175 -11 33 -28 112 -39 176 -25 140 -45 206 -124 408
-58 151 -60 160 -65 266 l-4 110 34 49 c33 49 53 64 120 90 36 14 37 16 27 43
-16 42 -59 82 -96 89 -22 4 -41 17 -55 38 -31 45 -130 146 -144 146 -19 0 -24
-26 -24 -138 l-1 -107 -23 27 c-46 52 -69 133 -74 260 -5 139 11 205 65 267
57 67 93 64 93 -7 0 -49 46 -92 98 -92 46 0 62 15 93 84 19 43 20 53 8 95 -6
25 -21 56 -32 68 -74 83 -291 64 -361 -30 -17 -23 -21 -42 -19 -93 l1 -65 -28
6 c-23 5 -32 2 -44 -17 -13 -21 -14 -30 -2 -76 8 -28 10 -54 5 -57 -13 -9 -65
69 -79 119 -18 65 -9 190 17 241 27 52 57 79 116 105 26 12 47 27 47 35 0 21
-42 45 -102 59 -44 10 -52 15 -49 31 15 82 12 123 -14 190 -15 39 -30 99 -34
135 -7 75 -17 81 -73 45z"/>
<path d="M7156 10429 c-93 -15 -132 -71 -82 -118 23 -22 28 -23 75 -11 72 17
81 12 79 -54 -2 -60 8 -78 55 -103 85 -44 165 43 136 150 -29 109 -126 160
-263 136z"/>
<path d="M2070 10402 c-80 -31 -113 -119 -76 -207 15 -35 67 -75 98 -75 10 0
34 14 53 32 35 30 36 34 33 87 -3 54 -2 56 24 59 15 2 43 -1 63 -7 47 -13 58
-8 78 35 24 49 22 53 -25 74 -56 25 -184 26 -248 2z"/>
<path d="M6501 10354 c-45 -37 -38 -94 11 -94 13 0 18 8 18 29 0 17 5 33 11
36 20 13 80 -6 115 -37 57 -50 60 -63 18 -88 -19 -12 -33 -27 -32 -32 2 -6 28
-19 57 -30 81 -31 103 -68 146 -256 52 -229 61 -255 109 -320 46 -62 146 -146
247 -207 32 -20 57 -41 53 -46 -3 -5 -28 -21 -56 -35 -67 -34 -144 -108 -174
-166 -21 -41 -24 -62 -24 -148 0 -56 5 -110 10 -120 12 -22 89 -70 112 -70 17
0 68 37 68 50 0 4 -8 18 -19 31 -18 22 -19 23 -45 5 -32 -21 -60 -14 -83 20
-30 47 1 154 46 154 10 0 25 22 40 55 43 101 141 160 296 180 50 6 96 15 103
19 18 11 15 41 -7 67 -15 19 -32 24 -97 30 -116 10 -187 41 -256 109 -42 42
-60 70 -71 108 -15 48 -14 56 5 123 30 106 -4 118 -63 22 -11 -18 -25 -31 -30
-27 -5 3 -21 29 -36 57 -21 43 -27 70 -31 150 -3 60 0 120 7 153 12 53 12 56
-14 89 -30 40 -49 44 -65 15 -16 -31 -26 -25 -66 38 -51 81 -82 111 -139 138
-68 32 -125 31 -164 -2z"/>
<path d="M2733 10345 c-44 -20 -63 -39 -115 -109 -34 -48 -65 -86 -69 -86 -4
0 -11 9 -14 20 -4 12 -15 20 -29 20 -45 0 -49 -19 -41 -169 5 -113 4 -150 -9
-193 -25 -87 -96 -153 -96 -89 0 22 -40 61 -63 61 -21 0 -21 -17 -2 -63 21
-51 19 -140 -4 -186 -47 -92 -172 -164 -311 -180 -68 -7 -88 -14 -102 -31 -20
-25 -23 -46 -8 -55 6 -4 59 -17 117 -31 183 -41 255 -87 297 -187 9 -22 25
-41 40 -47 33 -12 46 -39 46 -94 0 -65 -22 -85 -87 -79 -36 4 -52 1 -62 -11
-19 -22 27 -66 70 -66 40 0 93 51 108 105 18 66 14 173 -9 219 -26 55 -102
127 -175 168 -33 19 -60 40 -60 48 0 9 33 32 75 52 85 43 151 103 221 202 56
78 71 122 100 286 11 63 30 136 41 163 25 57 74 102 128 117 49 13 53 38 10
62 -17 9 -30 22 -30 27 0 6 15 27 32 47 56 63 138 82 138 31 1 -54 43 -62 56
-11 19 76 -87 109 -193 59z"/>
<path d="M6800 10294 c0 -16 39 -74 50 -74 12 0 13 20 2 35 -14 20 -52 48 -52
39z"/>
<path d="M2565 10260 c-29 -30 -29 -48 -1 -37 17 7 51 67 38 67 -4 0 -21 -13
-37 -30z"/>
<path d="M7150 10262 c-22 -18 -22 -19 -6 -51 22 -41 40 -35 44 14 4 48 -8 61
-38 37z"/>
<path d="M2210 10226 c0 -55 12 -64 39 -30 26 33 27 50 2 64 -34 18 -41 11
-41 -34z"/>
<path d="M6987 10083 c-21 -20 -1 -293 21 -293 4 0 27 14 52 30 53 35 69 37
101 11 23 -18 23 -20 7 -38 -60 -66 -63 -213 -6 -244 11 -6 20 -9 21 -7 1 2
21 40 45 85 23 45 42 89 42 98 0 16 -221 315 -257 348 -11 9 -23 14 -26 10z"/>
<path d="M2373 10048 c-31 -34 -115 -145 -198 -262 l-49 -69 35 -65 c18 -36
42 -76 53 -89 17 -23 19 -23 37 -7 47 42 48 133 3 210 -14 25 -23 51 -20 59
10 26 69 18 111 -15 21 -16 41 -30 45 -30 17 0 31 71 37 183 7 133 1 142 -54
85z"/>
<path d="M8007 10052 c-15 -6 -67 -100 -67 -121 0 -9 60 -31 83 -31 21 0 29
32 25 100 -3 55 -10 64 -41 52z"/>
<path d="M1350 10033 c0 -27 19 -135 24 -140 8 -8 74 17 79 30 6 17 -20 87
-40 109 -21 24 -63 24 -63 1z"/>
<path d="M1160 9913 c-21 -47 -28 -80 -20 -94 7 -11 12 -10 28 4 22 20 34 64
25 96 -7 28 -17 27 -33 -6z"/>
<path d="M8210 9902 c0 -42 23 -82 47 -82 12 0 14 7 10 36 -7 39 -32 84 -47
84 -6 0 -10 -17 -10 -38z"/>
<path d="M1430 9871 c-20 -6 -25 -13 -23 -39 2 -60 36 -77 93 -47 32 16 38 41
20 76 -11 20 -43 23 -90 10z"/>
<path d="M7886 9864 c-9 -8 -16 -26 -16 -40 0 -27 31 -44 81 -44 24 0 33 7 46
35 13 28 14 37 3 50 -17 20 -93 20 -114 -1z"/>
<path d="M1724 9853 c-6 -4 -16 -18 -23 -30 -9 -19 -8 -24 8 -33 11 -5 33 -10
49 -10 48 0 152 -59 212 -120 30 -31 73 -89 95 -129 21 -40 47 -77 57 -82 25
-13 58 6 59 34 6 125 -83 237 -256 323 -88 44 -177 64 -201 47z"/>
<path d="M7508 9836 c-70 -29 -176 -104 -217 -153 -31 -38 -71 -139 -71 -180
0 -15 11 -30 32 -43 l32 -19 37 69 c68 130 131 197 226 241 34 16 80 31 102
35 52 8 65 24 45 52 -21 31 -108 30 -186 -2z"/>
<path d="M1638 9764 c-4 -3 -37 -9 -74 -12 -39 -4 -69 -12 -71 -19 -7 -19 58
-53 100 -53 43 0 92 22 100 44 10 26 -36 59 -55 40z"/>
<path d="M7717 9763 c-14 -13 -6 -42 15 -57 29 -21 111 -20 154 0 58 28 46 37
-71 54 -84 12 -90 12 -98 3z"/>
<path d="M1765 9728 c25 -78 21 -90 -54 -172 -40 -42 -69 -81 -66 -86 4 -6 20
-17 36 -26 29 -15 31 -14 57 14 40 44 146 232 136 242 -5 5 -33 18 -63 30
l-54 21 8 -23z"/>
<path d="M7573 9730 c-24 -11 -43 -25 -43 -32 0 -20 115 -221 139 -242 20 -19
23 -19 56 -3 54 26 45 52 -39 116 -64 48 -76 77 -52 127 9 19 16 39 16 44 0
15 -30 11 -77 -10z"/>
<path d="M7440 9639 l-31 -31 36 -62 c19 -33 72 -132 117 -220 47 -90 92 -165
106 -174 29 -19 69 -3 77 31 8 29 -32 120 -103 240 -27 45 -64 109 -82 142
-32 60 -67 105 -81 105 -4 0 -21 -14 -39 -31z"/>
<path d="M1856 9578 c-63 -97 -156 -270 -186 -347 -20 -52 -20 -55 -3 -72 34
-32 59 -32 81 -2 15 23 95 170 219 403 7 14 13 32 13 41 0 18 -40 59 -58 59
-7 0 -37 -37 -66 -82z"/>
<path d="M8067 9566 c-82 -103 -169 -185 -245 -229 -31 -18 -59 -41 -60 -51
-2 -10 4 -36 14 -57 14 -33 29 -45 90 -74 84 -41 134 -96 153 -170 12 -48 12
-48 63 -11 15 11 31 17 34 13 4 -3 10 -28 15 -54 16 -82 48 -135 99 -160 44
-22 207 -55 365 -73 44 -5 104 -13 133 -16 45 -6 52 -4 52 11 0 31 -63 105
-123 146 -122 81 -254 96 -371 41 -38 -18 -72 -32 -77 -32 -14 0 -31 81 -24
119 4 20 15 56 26 80 l19 45 -32 34 c-57 58 -90 77 -148 82 -69 6 -77 27 -29
76 73 75 197 85 324 26 l70 -33 68 23 c37 12 67 28 67 34 0 20 -90 93 -129
104 -83 25 -133 24 -195 -4 -32 -14 -62 -26 -66 -26 -4 0 -15 15 -24 33 -18
40 -10 79 30 140 29 44 26 67 -9 67 -18 0 -40 -21 -90 -84z"/>
<path d="M1215 9630 c-3 -6 10 -36 29 -68 38 -61 45 -106 23 -137 -15 -19 -17
-19 -117 10 -56 16 -101 14 -170 -7 -62 -19 -144 -88 -126 -105 3 -3 34 -16
70 -29 l65 -23 60 31 c115 59 257 49 333 -23 57 -54 50 -73 -28 -77 -59 -3
-64 -5 -122 -58 l-61 -54 26 -56 c20 -45 24 -67 21 -110 -6 -70 -18 -83 -61
-65 -108 45 -143 53 -203 48 -126 -12 -243 -73 -295 -155 -40 -63 -39 -85 4
-78 17 3 104 15 192 26 192 25 233 34 307 71 76 38 108 85 108 156 0 45 3 53
19 53 10 0 30 -9 44 -20 31 -25 47 -25 47 -2 0 25 44 114 67 134 10 10 50 34
88 55 70 39 99 69 109 114 5 23 -3 31 -78 82 -118 81 -170 130 -226 212 -27
40 -56 75 -65 79 -25 9 -53 7 -60 -4z"/>
<path d="M7364 9525 c-10 -15 -18 -45 -18 -68 l-1 -42 60 0 c58 0 60 1 57 25
-3 27 -50 101 -69 107 -6 2 -20 -8 -29 -22z"/>
<path d="M1983 9518 c-27 -28 -56 -95 -48 -108 7 -11 84 -13 109 -4 33 13 11
125 -25 132 -8 1 -25 -8 -36 -20z"/>
<path d="M7465 9234 c-96 -18 -130 -36 -115 -64 26 -48 89 -63 144 -35 42 22
46 19 46 -30 0 -55 -35 -99 -95 -119 -48 -17 -53 -33 -24 -70 35 -44 113 -76
186 -76 34 0 65 4 68 10 3 5 -7 29 -23 52 -41 60 -45 81 -32 151 11 57 10 66
-10 112 -21 49 -47 86 -59 84 -3 0 -42 -7 -86 -15z"/>
<path d="M1805 9183 c-29 -62 -31 -80 -20 -156 7 -41 4 -55 -25 -113 -39 -80
-34 -87 57 -81 88 6 170 56 187 115 6 16 3 22 -8 22 -36 0 -97 34 -116 65 -21
35 -27 90 -9 100 5 4 26 -1 45 -10 62 -29 134 -2 134 50 0 31 -19 40 -107 54
-111 17 -108 18 -138 -46z"/>
<path d="M7255 9181 c-64 -39 -67 -48 -43 -126 79 -266 241 -397 472 -383 60
4 97 13 137 31 86 41 124 82 148 161 26 85 26 116 1 166 -43 85 -165 125 -249
82 -72 -36 -98 -114 -59 -172 35 -52 68 -65 112 -43 75 35 48 -18 -33 -65 -60
-35 -171 -36 -246 -3 -80 35 -155 122 -155 180 0 17 5 19 58 14 47 -4 61 -2
81 14 39 32 22 53 -42 53 -59 0 -79 14 -111 78 -19 37 -30 39 -71 13z"/>
<path d="M2075 9152 c-24 -45 -74 -72 -132 -72 -49 0 -55 -14 -23 -48 23 -24
60 -28 109 -11 40 14 45 9 37 -36 -10 -51 -78 -122 -151 -156 -48 -23 -74 -29
-128 -29 -37 0 -82 6 -101 14 -34 14 -106 72 -106 86 0 5 23 1 50 -8 48 -15
51 -15 78 5 35 26 52 59 52 106 0 52 -23 93 -61 106 -18 6 -66 11 -109 11 -73
0 -77 -1 -107 -32 -47 -50 -66 -96 -66 -159 0 -142 123 -256 288 -267 132 -8
263 38 348 122 55 56 120 182 141 275 l15 64 -34 34 c-45 45 -74 44 -100 -5z"/>
<path d="M2232 9033 c-6 -12 -12 -30 -12 -39 0 -17 1 -17 16 -2 9 8 14 26 12
39 l-3 24 -13 -22z"/>
<path d="M7150 9035 c0 -21 17 -45 32 -45 14 0 9 17 -12 41 -19 23 -19 23 -20
4z"/>
<path d="M7999 8839 c-11 -22 -5 -69 10 -69 18 0 43 39 37 58 -10 29 -34 35
-47 11z"/>
<path d="M1373 8843 c-18 -7 -16 -58 2 -73 22 -19 37 0 33 40 -3 34 -13 43
-35 33z"/>
<path d="M1428 8729 c-18 -10 -25 -64 -10 -85 11 -16 55 -44 70 -44 7 0 20 16
28 35 16 40 9 63 -28 89 -26 18 -36 19 -60 5z"/>
<path d="M7900 8713 c-25 -32 -24 -81 2 -97 21 -13 62 8 91 46 15 21 16 28 6
51 -17 38 -69 38 -99 0z"/>
<path d="M8115 8550 c-10 -16 0 -61 41 -190 20 -62 41 -114 50 -117 9 -3 35
14 69 46 42 40 61 51 87 51 61 0 131 -62 157 -139 39 -119 -21 -242 -160 -327
-33 -19 -59 -39 -59 -44 0 -4 16 -72 35 -151 34 -143 47 -225 85 -537 25 -207
45 -302 77 -375 25 -55 44 -77 127 -141 l38 -28 -48 -32 c-60 -39 -94 -88 -94
-134 0 -30 8 -43 55 -86 l54 -51 -41 -34 c-51 -43 -92 -129 -112 -236 -20
-104 -85 -547 -96 -650 -5 -44 -22 -129 -39 -189 -17 -60 -31 -112 -31 -115 0
-4 24 -21 54 -39 63 -37 106 -88 140 -164 41 -88 42 -119 10 -179 -35 -63 -80
-99 -134 -106 -36 -5 -43 -2 -80 35 -55 55 -52 75 17 139 52 49 56 55 47 80
-5 15 -22 34 -37 43 -26 14 -29 14 -43 -5 -25 -33 -132 -430 -120 -443 4 -3
21 9 39 26 54 53 95 36 112 -45 17 -82 191 -140 292 -98 l36 15 -45 29 c-49
31 -78 65 -78 93 0 17 16 24 70 30 19 2 32 16 54 59 l29 55 -41 53 c-23 29
-45 65 -48 79 -3 15 -7 32 -9 39 -7 22 17 86 41 110 23 23 25 23 55 8 17 -9
32 -15 34 -13 14 17 26 55 31 101 l7 56 -62 58 c-86 83 -82 113 15 113 48 0
77 20 94 66 12 32 13 91 1 98 -5 3 -29 -2 -54 -11 -44 -16 -47 -16 -82 3 -21
10 -39 25 -42 31 -3 7 7 33 21 57 34 59 33 78 -9 110 -54 42 -67 112 -27 159
16 18 57 23 67 8 11 -19 63 -22 93 -7 44 23 65 77 60 151 -7 79 -23 112 -75
150 -23 16 -44 36 -47 43 -14 33 52 92 113 102 l36 5 3 272 2 271 -51 12 c-55
13 -113 57 -122 91 -4 15 1 22 21 30 76 27 111 75 112 150 0 56 -27 132 -57
161 -37 34 -52 38 -92 22 -53 -22 -61 -19 -61 24 0 41 26 91 62 117 l23 18
-31 66 c-18 36 -35 78 -38 94 -6 26 -5 27 31 27 21 -1 62 -9 91 -19 29 -10 55
-14 58 -10 3 5 -1 28 -8 51 -16 55 -79 118 -140 142 -52 19 -57 30 -33 76 18
34 43 50 80 50 21 0 26 4 21 16 -3 9 -6 34 -6 57 0 63 -13 76 -42 43 -29 -35
-52 -27 -79 27 -32 61 -24 158 17 224 l31 50 -48 56 c-31 34 -60 58 -78 62
-48 10 -55 28 -23 57 39 37 89 60 147 67 l50 7 -30 19 c-25 17 -46 20 -150 20
-153 -1 -197 -13 -230 -65 -42 -66 -65 -55 -110 54 -20 50 -38 66 -50 46z"/>
<path d="M1250 8523 c-25 -68 -45 -105 -63 -114 -23 -13 -47 -5 -47 15 0 28
-67 74 -127 86 -70 15 -199 6 -252 -17 l-36 -15 68 -17 c63 -17 135 -60 145
-89 2 -7 -16 -20 -40 -31 -42 -18 -95 -67 -116 -106 -9 -16 -5 -30 19 -71 51
-91 49 -177 -8 -245 l-26 -30 -27 26 c-15 15 -30 23 -33 18 -2 -4 -7 -36 -11
-71 -7 -62 -7 -63 16 -57 27 7 70 -31 87 -77 10 -26 8 -28 -57 -60 -52 -26
-74 -44 -99 -82 -37 -54 -46 -112 -15 -103 144 47 168 46 157 -5 -4 -18 -20
-59 -35 -92 l-28 -58 38 -38 c40 -40 56 -90 39 -122 -8 -14 -17 -18 -32 -13
-66 19 -98 18 -122 -5 -14 -13 -29 -40 -35 -59 -14 -51 -13 -184 3 -204 6 -9
35 -25 62 -35 28 -11 51 -27 53 -37 6 -28 -70 -91 -127 -105 l-51 -12 0 -268
0 -268 44 -6 c53 -8 89 -34 107 -77 12 -29 11 -34 -6 -43 -76 -45 -115 -107
-115 -184 0 -63 12 -96 46 -127 30 -28 66 -32 114 -11 45 19 67 10 81 -31 17
-52 -2 -105 -51 -144 -22 -18 -40 -36 -40 -40 0 -4 16 -26 35 -49 19 -23 35
-48 35 -56 0 -7 -20 -25 -46 -40 -45 -26 -45 -26 -84 -9 -49 22 -70 15 -70
-25 0 -66 39 -120 87 -120 10 0 35 -5 56 -11 57 -15 51 -45 -24 -113 l-62 -55
7 -51 c12 -92 32 -115 76 -88 17 11 24 9 52 -19 27 -27 32 -41 36 -93 l4 -60
-51 -55 c-28 -29 -51 -59 -51 -65 0 -15 49 -92 68 -107 9 -7 31 -13 49 -13 28
0 33 -3 33 -25 0 -30 -52 -91 -85 -99 -34 -9 -31 -22 7 -42 63 -33 200 -3 253
56 11 12 31 45 45 73 14 29 33 53 42 55 9 2 35 -13 57 -34 23 -20 41 -31 41
-25 0 28 -73 340 -92 388 -10 29 -27 57 -37 63 -25 13 -58 -12 -66 -51 -7 -29
-3 -36 44 -79 63 -58 67 -86 17 -136 -27 -27 -42 -34 -73 -34 -53 0 -113 44
-142 102 -25 52 -26 74 -7 145 20 76 49 117 127 180 81 65 84 76 44 207 -13
44 -31 138 -40 207 -8 69 -23 168 -34 220 -11 52 -29 168 -41 259 -12 91 -24
176 -27 190 -10 44 -42 98 -88 150 -25 28 -45 55 -45 59 0 5 16 18 35 30 82
48 96 132 29 186 -20 17 -50 42 -66 56 l-31 26 63 48 c71 54 95 98 129 229 23
86 63 348 81 521 7 61 20 142 30 180 11 39 24 99 30 135 5 36 13 79 16 97 4
30 1 34 -36 53 -98 50 -190 181 -190 270 0 106 132 236 202 199 13 -7 45 -34
71 -61 27 -26 52 -46 57 -43 14 8 80 221 87 278 5 39 3 47 -11 47 -9 0 -21
-12 -26 -27z"/>
<path d="M1301 8408 c-116 -363 -196 -703 -240 -1021 -12 -80 -26 -158 -32
-173 -5 -16 -13 -67 -15 -114 -7 -102 -45 -265 -80 -337 -14 -29 -46 -80 -71
-114 l-46 -61 53 -53 53 -53 34 16 c31 15 37 15 60 2 14 -8 35 -27 46 -42 19
-25 19 -29 4 -51 -24 -37 -70 -52 -115 -39 -42 13 -57 4 -87 -52 l-18 -33 32
-46 c65 -95 100 -227 121 -457 6 -69 18 -150 25 -180 8 -30 21 -104 30 -165
10 -60 41 -216 71 -345 30 -129 77 -332 104 -450 54 -232 70 -280 96 -280 10
0 34 18 55 40 45 47 69 118 69 204 0 59 -1 61 -50 108 -44 42 -55 48 -94 48
-27 0 -48 6 -56 15 -11 14 -7 23 30 60 l43 43 -32 87 c-53 147 -118 432 -166
735 -16 98 -16 111 -1 195 25 132 44 183 88 232 33 35 39 47 34 69 -11 43 -52
72 -112 80 -58 7 -68 13 -58 38 10 26 54 44 125 52 35 4 73 13 84 21 11 7 37
18 58 24 20 5 37 14 37 18 0 11 -58 61 -71 61 -5 0 -9 9 -9 19 0 28 -15 34
-47 17 -60 -30 -133 -24 -178 15 -42 37 -47 64 -10 55 17 -4 43 3 85 24 33 17
60 33 60 36 0 4 -18 33 -40 66 -39 58 -40 63 -40 142 0 168 70 575 161 936 21
85 39 161 39 167 0 7 -16 33 -35 59 -53 70 -43 106 34 119 38 6 41 9 61 68 12
34 24 97 27 139 l6 77 -36 36 c-19 19 -40 35 -46 35 -5 0 -23 -42 -40 -92z"/>
<path d="M8015 8475 c-34 -33 -36 -89 -9 -218 19 -91 28 -107 64 -107 31 0 70
-30 70 -53 0 -7 -13 -34 -30 -60 -39 -61 -38 -90 5 -239 45 -157 93 -375 105
-480 5 -46 16 -108 25 -138 11 -35 18 -114 22 -221 6 -179 6 -182 -50 -251
-16 -20 -26 -41 -23 -46 5 -9 100 -51 149 -66 15 -5 16 -9 7 -26 -29 -54 -120
-76 -181 -44 -33 16 -59 13 -59 -8 0 -7 -18 -24 -40 -38 -53 -33 -53 -56 0
-65 24 -4 44 -14 50 -26 9 -16 22 -19 82 -19 64 0 75 -3 100 -27 45 -43 40
-52 -42 -68 -55 -11 -87 -32 -98 -63 -8 -25 -5 -34 33 -85 52 -68 78 -135 95
-239 11 -66 10 -86 -3 -140 -9 -35 -18 -91 -21 -126 -3 -34 -15 -97 -25 -140
-11 -42 -25 -115 -31 -162 -7 -50 -35 -158 -69 -261 l-58 -176 39 -42 c22 -23
38 -47 35 -54 -2 -6 -33 -17 -68 -22 -79 -13 -84 -16 -111 -68 -25 -49 -29
-149 -9 -211 16 -46 76 -116 101 -116 23 0 51 67 96 227 44 162 137 581 164
738 11 66 25 135 30 155 5 19 14 85 20 145 36 366 66 488 149 610 29 41 26 68
-10 110 -25 28 -34 33 -49 25 -52 -28 -140 6 -140 54 0 13 12 36 27 51 26 25
32 27 80 21 52 -6 53 -5 98 37 25 24 45 48 45 54 0 6 -18 33 -40 59 -87 105
-126 227 -159 504 -28 229 -46 338 -75 460 -14 58 -32 150 -40 205 -9 55 -40
181 -71 280 -31 99 -67 222 -80 273 -33 129 -51 147 -100 97z"/>
<path d="M8311 8284 c-13 -9 -29 -32 -37 -51 -16 -36 -10 -55 25 -87 20 -18
21 -18 56 4 50 31 65 22 65 -40 0 -62 -17 -96 -70 -135 -37 -28 -60 -68 -46
-82 3 -3 24 2 47 12 54 25 126 106 140 158 24 88 -9 199 -66 225 -37 17 -87
15 -114 -4z"/>
<path d="M1010 8283 c-66 -21 -93 -63 -104 -156 -6 -58 -6 -59 46 -134 41 -59
63 -81 95 -95 76 -34 86 2 17 59 -74 62 -106 150 -70 198 13 18 14 18 41 -3
15 -12 35 -22 45 -22 28 0 50 33 50 78 0 32 -6 45 -26 61 -25 20 -61 25 -94
14z"/>
<path d="M8220 8158 c1 -31 29 -129 44 -153 9 -14 25 -25 35 -25 35 0 102 84
86 110 -2 4 -26 13 -52 20 -27 6 -63 23 -80 36 -21 16 -33 20 -33 12z"/>
<path d="M1143 8134 c-14 -16 -38 -25 -72 -30 -41 -5 -51 -10 -51 -26 0 -33
29 -77 61 -94 30 -15 33 -15 51 4 27 27 62 174 41 171 -5 -1 -18 -12 -30 -25z"/>
<path d="M8828 8014 c-6 -5 31 -185 52 -254 12 -40 48 -269 60 -380 4 -41 13
-95 19 -120 6 -25 15 -173 20 -329 6 -156 12 -286 15 -288 13 -13 82 46 116
97 69 108 75 142 75 435 l-1 260 -47 141 c-64 192 -100 277 -144 336 -51 70
-142 126 -165 102z"/>
<path d="M494 7982 c-21 -16 -54 -46 -73 -68 -60 -68 -171 -324 -171 -394 0
-15 -7 -47 -15 -71 -9 -24 -21 -101 -27 -172 -19 -218 17 -432 91 -550 29 -44
86 -91 101 -82 10 6 18 110 30 375 6 124 17 252 25 285 7 33 19 119 25 190 6
75 21 166 36 215 28 98 54 229 54 271 0 38 -24 38 -76 1z"/>
<path d="M8144 6618 c-19 -30 49 -83 97 -76 30 4 34 20 12 46 -20 24 -99 46
-109 30z"/>
<path d="M1193 6609 c-18 -5 -39 -19 -48 -31 -37 -53 54 -63 95 -11 34 44 15
60 -47 42z"/>
<path d="M960 6460 c-26 -26 -25 -45 1 -63 26 -19 58 -10 71 19 9 19 8 28 -7
44 -23 25 -40 25 -65 0z"/>
<path d="M8376 6461 c-19 -21 -13 -47 15 -61 26 -14 37 -12 59 10 24 24 25 34
4 54 -21 21 -57 20 -78 -3z"/>
<path d="M353 6188 c-65 -72 -127 -283 -127 -438 0 -109 32 -361 55 -435 40
-129 121 -265 208 -350 39 -37 41 -38 41 -15 0 14 -9 45 -20 69 -17 36 -19 50
-10 76 8 25 6 50 -10 116 -11 46 -23 134 -26 194 -3 61 -12 141 -20 179 -9 41
-17 151 -20 270 -5 223 -22 356 -43 356 -4 0 -17 -10 -28 -22z"/>
<path d="M9010 6186 c-11 -31 -28 -220 -35 -411 -3 -82 -12 -190 -20 -240 -7
-49 -16 -124 -20 -165 -3 -41 -13 -115 -22 -163 -12 -63 -14 -96 -7 -115 8
-21 6 -35 -7 -62 -21 -44 -32 -90 -21 -90 16 0 104 96 137 150 44 73 115 251
127 320 5 30 11 89 14 130 2 41 12 98 21 127 14 43 15 62 5 120 -6 37 -15 97
-21 133 -16 115 -96 290 -132 290 -5 0 -14 -11 -19 -24z"/>
<path d="M8300 5001 c-19 -37 -11 -59 34 -91 49 -35 66 -61 69 -105 2 -22 -4
-32 -23 -42 -61 -29 -95 -97 -65 -127 20 -19 89 -21 125 -3 65 32 77 150 24
247 -30 55 -114 140 -138 140 -9 0 -20 -9 -26 -19z"/>
<path d="M1024 4978 c-69 -47 -114 -135 -114 -225 0 -63 2 -67 39 -104 30 -30
46 -39 73 -39 53 0 70 18 66 70 -3 39 -7 46 -42 64 -22 12 -43 31 -47 42 -11
32 19 84 69 117 51 34 59 49 44 83 -15 32 -30 30 -88 -8z"/>
<path d="M8127 4363 c-10 -9 -8 -43 2 -43 5 0 14 7 21 15 17 21 -4 48 -23 28z"/>
<path d="M1245 4350 c-4 -7 -3 -16 3 -22 14 -14 45 -2 40 15 -6 16 -34 21 -43
7z"/>
<path d="M1440 4263 c-64 -44 -72 -129 -17 -181 l22 -21 33 25 c18 14 39 38
46 53 13 25 12 32 -11 84 -14 31 -31 57 -37 57 -6 0 -23 -8 -36 -17z"/>
<path d="M7912 4268 c-5 -7 -19 -32 -31 -56 -20 -40 -21 -46 -7 -67 9 -13 31
-36 51 -51 40 -30 53 -25 79 30 26 55 21 90 -19 125 -38 33 -57 38 -73 19z"/>
<path d="M8646 4178 c-22 -11 -103 -36 -180 -55 -141 -34 -205 -63 -226 -103
-17 -32 25 -52 111 -52 66 0 81 4 165 46 69 34 104 60 143 102 73 80 68 105
-13 62z"/>
<path d="M690 4175 c0 -43 169 -172 262 -200 61 -18 81 -18 145 -4 64 13 90
33 73 53 -23 28 -114 64 -235 91 -66 15 -140 38 -164 51 -49 27 -81 31 -81 9z"/>
<path d="M1642 4145 c-141 -31 -216 -126 -197 -250 7 -52 59 -119 99 -129 18
-4 30 -22 51 -73 64 -163 261 -513 287 -513 20 0 77 41 83 60 4 14 -29 85
-104 227 -158 299 -156 296 -189 290 -15 -2 -35 -8 -44 -12 -35 -15 -17 11 27
39 56 35 94 83 102 129 4 30 0 40 -32 76 l-37 41 28 12 c40 16 142 16 184 -2
62 -25 109 -59 140 -102 38 -52 39 -78 5 -78 -51 0 -117 -53 -100 -79 3 -5 20
-13 38 -16 19 -5 55 -29 89 -61 31 -30 61 -54 66 -54 5 0 21 9 36 21 31 24 33
57 11 142 -21 82 -60 153 -116 212 -59 62 -124 99 -210 120 -77 18 -133 18
-217 0z"/>
<path d="M7488 4136 c-149 -61 -265 -216 -276 -370 -4 -59 -2 -71 13 -83 32
-23 65 -15 113 28 26 23 64 50 85 60 20 11 37 26 37 33 0 21 -49 56 -79 56
-46 0 -55 13 -36 49 43 84 149 151 240 152 50 1 125 -16 125 -28 0 -3 -13 -21
-30 -40 -57 -64 -34 -143 54 -191 54 -29 77 -61 35 -48 -63 20 -68 19 -84 -10
-9 -16 -70 -132 -136 -258 l-120 -229 23 -24 c13 -14 35 -31 51 -39 26 -14 28
-14 60 31 51 73 144 247 211 398 59 131 65 139 114 172 60 41 72 60 72 113 0
101 -53 188 -142 231 -37 18 -62 21 -159 21 -96 0 -123 -4 -171 -24z"/>
<path d="M8013 4073 c-14 -21 -18 -46 -17 -117 l2 -90 -80 -90 c-71 -80 -108
-136 -108 -164 0 -7 216 -197 261 -230 16 -11 21 -7 43 31 15 24 26 47 26 50
0 4 -21 20 -47 36 -40 25 -83 74 -83 94 0 3 15 8 33 11 58 11 217 128 217 160
0 7 -11 22 -24 33 -13 12 -28 27 -32 35 -5 8 -31 25 -58 38 -58 27 -76 63 -76
148 0 81 -25 105 -57 55z"/>
<path d="M1336 4074 c-3 -9 -6 -44 -6 -78 0 -74 -16 -100 -82 -139 -46 -27
-81 -62 -91 -89 -14 -39 139 -168 199 -168 27 0 34 -4 34 -20 0 -24 -57 -82
-98 -99 -18 -8 -32 -16 -32 -20 1 -14 46 -85 57 -88 6 -2 44 24 83 59 40 35
95 80 124 101 69 52 72 59 47 125 -17 44 -37 72 -91 122 l-70 66 0 89 c0 72
-4 97 -20 123 -21 35 -44 42 -54 16z"/>
<path d="M1773 4023 c-17 -6 -16 -26 4 -68 17 -35 17 -36 -15 -101 l-33 -66
35 -62 c20 -35 42 -68 50 -75 9 -8 48 -11 117 -9 l104 3 0 29 c0 31 -6 36 -77
66 -64 26 -65 53 -3 119 25 26 45 55 45 64 0 46 -173 122 -227 100z"/>
<path d="M7506 4010 c-53 -21 -92 -52 -102 -82 -4 -14 8 -31 45 -66 51 -48 63
-80 39 -99 -7 -6 -35 -18 -61 -28 -51 -19 -87 -59 -70 -76 5 -5 58 -8 124 -7
l114 3 39 76 39 75 -22 31 c-25 33 -31 82 -17 151 l8 42 -44 0 c-23 -1 -65
-10 -92 -20z"/>
<path d="M8385 3544 c-11 -9 -55 -33 -98 -54 l-78 -38 22 -21 c19 -18 36 -21
101 -21 106 0 190 38 235 107 14 21 14 26 2 34 -25 15 -162 10 -184 -7z"/>
<path d="M830 3537 c0 -26 50 -77 103 -104 42 -21 65 -25 129 -25 128 0 167
45 64 71 -25 6 -59 23 -77 38 -30 25 -41 28 -126 31 -78 3 -93 1 -93 -11z"/>
<path d="M7765 3526 c-20 -31 -15 -58 20 -111 27 -38 23 -54 -13 -55 -7 0 -15
-13 -18 -29 -4 -16 -17 -40 -30 -52 -38 -36 -31 -49 25 -49 42 0 56 -6 98 -38
77 -62 149 -147 186 -221 59 -118 72 -267 29 -321 -17 -21 -17 -21 -48 22 -17
25 -47 52 -67 62 -21 9 -37 20 -37 24 0 4 5 27 11 51 14 61 5 89 -52 176 -68
105 -81 101 -103 -35 l-11 -64 -46 2 c-34 3 -51 -2 -70 -17 l-24 -21 40 -32
c72 -58 97 -92 142 -184 52 -107 68 -191 54 -290 -11 -72 -48 -159 -69 -159
-8 0 -20 18 -27 39 -23 67 -56 73 -115 20 l-39 -36 -25 55 c-26 59 -56 87 -95
87 -23 0 -23 -2 -17 -47 21 -148 21 -142 -10 -153 -79 -29 -111 -62 -100 -106
5 -17 19 -30 44 -41 45 -18 82 -51 82 -72 -1 -24 -66 -107 -89 -114 -31 -8
-85 24 -93 56 -5 15 -11 39 -16 55 -8 30 -39 39 -99 27 -39 -7 -103 -59 -103
-84 0 -9 14 -38 30 -66 67 -114 24 -273 -122 -447 -125 -150 -227 -233 -464
-376 -142 -85 -193 -106 -444 -178 -91 -26 -187 -53 -215 -61 -70 -21 -366
-29 -448 -13 -34 6 -84 24 -112 38 -66 36 -155 126 -184 187 -57 121 9 240
144 262 71 11 137 -31 155 -99 l11 -40 24 22 c72 68 41 196 -59 244 -52 24
-96 20 -151 -15 -43 -27 -53 -30 -97 -24 -47 7 -50 5 -87 -32 -21 -21 -43 -47
-49 -58 -9 -18 -14 -18 -44 -7 -68 24 -131 11 -181 -36 -45 -42 -57 -75 -57
-149 1 -133 57 -196 203 -227 15 -4 27 -11 27 -16 0 -5 -32 -31 -72 -57 -78
-53 -91 -72 -139 -200 -17 -46 -34 -83 -37 -83 -4 0 -26 42 -50 94 -55 117
-85 154 -161 195 -33 17 -63 36 -66 41 -9 14 39 30 90 30 39 0 47 4 84 47 89
104 91 243 4 325 -54 51 -118 61 -180 28 -40 -21 -53 -19 -53 10 0 11 -13 34
-29 52 -27 30 -34 33 -83 31 -42 -2 -60 3 -88 22 -48 33 -83 39 -135 25 -90
-25 -158 -115 -141 -185 7 -28 48 -75 65 -75 5 0 17 23 26 50 20 60 51 80 122
80 96 0 169 -70 180 -171 11 -112 -59 -207 -207 -278 l-75 -36 -185 1 c-102 0
-228 6 -280 13 -111 15 -406 108 -553 175 -285 129 -574 374 -675 571 -58 114
-69 242 -27 310 31 50 31 85 3 113 -32 29 -71 42 -128 42 l-48 0 -7 -46 c-16
-111 -119 -127 -169 -27 -31 63 -13 101 55 117 38 10 44 15 47 40 5 45 -16 74
-75 101 -29 14 -53 31 -53 38 1 7 7 41 15 77 20 91 19 100 -9 100 -35 0 -82
-44 -102 -95 -9 -25 -18 -45 -20 -45 -2 0 -23 14 -46 30 -22 17 -51 30 -64 30
-27 0 -54 -34 -54 -68 0 -38 -32 -23 -57 28 -19 37 -23 61 -23 140 0 201 38
300 156 408 l76 69 -29 18 c-19 13 -43 18 -75 17 l-48 -2 0 42 c0 50 -16 115
-31 124 -17 10 -68 -46 -101 -113 -24 -50 -29 -71 -26 -110 3 -26 7 -55 11
-63 5 -11 -5 -20 -34 -34 -23 -10 -51 -35 -66 -57 -31 -47 -47 -49 -62 -8 -29
85 3 272 62 358 65 95 201 201 259 201 18 0 40 5 48 10 12 8 9 15 -18 43 -17
18 -32 40 -32 50 0 9 -14 23 -30 32 -17 9 -30 17 -30 19 0 2 14 21 30 42 35
43 38 99 7 118 -28 18 -121 -37 -207 -124 -93 -93 -136 -174 -186 -355 -35
-122 -36 -136 -31 -231 6 -108 29 -212 78 -349 29 -83 29 -88 13 -106 -26 -28
-40 -24 -102 31 -58 52 -90 67 -118 56 -13 -5 -15 -16 -11 -54 3 -26 9 -57 12
-69 6 -19 2 -23 -34 -33 -47 -12 -96 -50 -116 -91 -19 -37 -19 -132 0 -169 15
-29 18 -30 85 -30 l70 0 0 49 c0 45 -3 51 -27 63 -39 19 -41 50 -3 81 54 46
179 49 266 5 64 -31 149 -125 186 -203 25 -55 29 -74 24 -113 -12 -95 -12 -96
8 -100 11 -3 34 12 61 38 l43 42 25 -34 c15 -18 48 -62 74 -98 66 -91 327
-349 458 -454 205 -163 373 -270 619 -393 189 -94 323 -150 556 -228 255 -86
240 -77 233 -136 -7 -59 8 -65 59 -20 49 42 71 51 127 51 68 0 149 -32 204
-81 60 -52 73 -91 53 -158 -13 -44 -13 -50 1 -55 51 -20 105 23 131 104 16 53
19 55 55 58 39 3 37 5 62 -66 4 -11 16 -8 49 12 51 30 75 32 116 11 78 -40 78
-146 0 -220 -36 -35 -37 -39 -5 -53 36 -17 53 -15 86 9 35 25 59 19 59 -15 0
-28 67 -106 91 -106 8 0 29 13 47 29 27 25 32 37 32 75 0 25 4 46 10 46 5 0
32 -9 60 -20 57 -22 92 -25 121 -9 19 10 18 13 -21 55 -86 94 -80 174 18 218
39 18 40 18 91 -8 56 -29 71 -27 71 8 0 30 18 46 51 46 37 0 56 -21 64 -72 10
-62 21 -76 64 -89 58 -17 71 -9 58 38 -15 59 -2 109 46 160 59 64 107 86 188
85 56 0 77 -6 136 -36 38 -20 72 -36 76 -36 4 0 4 24 1 54 l-7 55 44 10 c186
47 513 176 784 311 378 188 623 371 891 665 60 66 143 155 185 199 l75 78 31
-31 c32 -32 68 -41 75 -19 3 7 0 35 -4 62 -29 157 154 359 337 374 79 6 105
-1 138 -34 36 -36 35 -69 -3 -89 -33 -17 -49 -59 -33 -84 27 -43 118 -38 166
10 27 28 29 34 24 82 -9 72 -47 122 -124 165 -56 30 -62 36 -52 53 14 27 16
96 2 110 -19 19 -59 2 -118 -53 -51 -46 -59 -50 -83 -42 -36 13 -35 53 6 165
17 47 38 118 47 158 63 299 -73 658 -310 821 -63 43 -90 47 -110 16z"/>
<path d="M1930 3455 c-17 -20 2 -72 44 -121 29 -33 36 -37 49 -26 21 18 51 97
42 112 -9 15 -84 49 -106 50 -9 0 -22 -7 -29 -15z"/>
<path d="M7400 3463 c-62 -8 -75 -38 -45 -108 28 -68 65 -54 112 42 22 46 24
56 12 64 -14 9 -18 9 -79 2z"/>
<path d="M7687 3368 c-59 -92 -118 -206 -110 -211 4 -3 32 -12 62 -21 70 -21
171 -21 197 -1 19 15 19 15 0 30 -10 8 -39 17 -65 20 -108 14 -121 17 -121 30
0 7 16 37 36 66 54 79 67 114 49 129 -12 10 -20 2 -48 -42z"/>
<path d="M1663 3394 c-7 -20 16 -69 62 -130 51 -67 46 -78 -40 -79 -57 0 -76
-4 -103 -24 -40 -28 -32 -41 30 -48 45 -5 195 20 211 36 13 13 -125 261 -146
261 -4 0 -10 -7 -14 -16z"/>
<path d="M2092 3369 c-89 -164 -175 -233 -349 -280 -43 -11 -81 -24 -85 -28
-4 -3 0 -21 7 -38 18 -41 43 -43 153 -8 145 46 260 143 327 276 l34 66 -23 22
c-30 29 -44 27 -64 -10z"/>
<path d="M7246 3381 c-17 -18 -17 -22 2 -65 66 -149 196 -257 362 -301 88 -24
115 -20 130 16 8 17 9 33 4 38 -5 4 -40 15 -79 25 -151 35 -284 134 -340 251
-28 60 -49 69 -79 36z"/>
<path d="M2161 3247 c-23 -29 -46 -68 -52 -85 -14 -41 2 -73 115 -228 105
-143 125 -167 159 -189 27 -17 27 -17 38 11 18 47 16 211 -4 276 -9 31 -22 60
-28 64 -6 3 -25 -7 -42 -24 -35 -34 -83 -56 -99 -46 -6 4 -8 36 -3 89 7 87 -4
154 -29 174 -12 10 -22 2 -55 -42z"/>
<path d="M7176 3278 c-12 -17 -16 -49 -16 -135 0 -96 -2 -113 -16 -113 -23 0
-55 19 -92 53 -39 38 -49 31 -68 -50 -21 -91 -15 -275 10 -301 12 -11 68 54
177 202 60 81 114 165 120 186 10 34 9 43 -9 72 -12 18 -30 50 -42 71 -23 42
-42 47 -64 15z"/>
<path d="M8157 3253 c-4 -3 -7 -12 -7 -20 0 -15 26 -18 34 -4 7 11 -18 33 -27
24z"/>
<path d="M1227 3244 c-13 -13 -7 -24 14 -24 11 0 19 5 17 12 -5 14 -22 21 -31
12z"/>
<path d="M7293 3044 c-53 -74 -260 -339 -351 -449 -50 -60 -267 -262 -471
-438 -138 -119 -408 -280 -633 -376 -240 -103 -415 -151 -549 -151 -115 0
-165 28 -206 115 -21 47 -50 56 -79 24 -26 -29 -24 -103 4 -156 11 -23 18 -44
15 -47 -4 -3 -24 -6 -46 -6 -54 0 -111 56 -122 118 -10 63 -50 88 -135 87 -36
-1 -78 -5 -93 -9 -17 -5 -38 -4 -53 3 -24 11 -24 10 -24 -47 0 -92 -46 -148
-130 -159 -47 -7 -48 -3 -20 67 28 72 26 115 -6 145 -15 14 -31 25 -35 25 -5
0 -21 -26 -36 -57 -24 -50 -36 -62 -83 -86 -53 -28 -59 -28 -175 -25 -111 4
-130 8 -255 50 -441 151 -794 375 -1164 737 -228 224 -360 377 -486 564 -40
60 -84 114 -96 119 -28 13 -69 -10 -86 -48 -22 -48 37 -137 331 -504 l141
-175 -30 -15 -31 -16 23 -20 c13 -12 37 -31 55 -43 63 -43 49 -137 -28 -189
-30 -21 -41 -23 -96 -17 -69 7 -75 2 -52 -48 11 -24 83 -77 106 -77 7 0 20 12
30 27 28 46 55 73 74 73 23 0 82 -68 75 -87 -3 -8 -6 -16 -6 -18 0 -2 -23 -17
-50 -35 -53 -34 -58 -46 -36 -88 19 -37 55 -68 98 -87 57 -23 68 -20 68 19 0
71 41 140 102 172 39 20 144 18 193 -5 92 -41 137 -107 137 -195 0 -56 9 -72
72 -117 53 -39 82 -38 100 4 7 18 28 45 45 60 28 23 35 25 57 15 28 -13 54
-55 54 -87 0 -11 -14 -28 -36 -41 -58 -37 -62 -84 -11 -138 63 -68 110 -67
216 3 127 84 210 107 400 113 169 5 262 -6 369 -42 89 -30 202 -88 280 -142
35 -24 65 -44 68 -44 2 0 29 20 58 44 191 155 571 224 884 160 89 -18 145 -42
197 -84 83 -66 118 -71 181 -24 29 21 64 78 64 102 0 6 -20 30 -45 53 -25 23
-45 51 -45 61 0 27 45 68 73 68 32 0 71 -32 87 -70 20 -48 71 -40 138 23 29
28 32 36 31 87 -2 66 14 100 68 152 48 47 116 77 171 78 102 0 192 -92 192
-196 l0 -37 42 6 c48 6 84 30 116 77 35 51 29 76 -23 108 -26 15 -48 37 -51
50 -7 27 18 69 51 84 29 13 46 2 81 -54 28 -44 42 -46 95 -16 37 21 73 73 62
91 -3 5 -29 7 -56 3 -69 -8 -126 25 -157 89 -27 55 -21 85 20 117 17 13 43 33
58 45 l27 21 -27 11 c-16 6 -28 17 -28 24 0 8 48 70 106 138 182 211 364 470
364 515 0 26 -20 48 -61 69 l-29 15 -47 -66z"/>
<path d="M7876 3065 c-13 -35 25 -85 66 -85 23 0 28 4 28 24 0 52 -77 103 -94
61z"/>
<path d="M1446 3033 c-23 -34 -24 -37 -8 -49 9 -8 23 -14 30 -14 22 0 62 48
62 75 0 21 -5 25 -30 25 -23 0 -35 -8 -54 -37z"/>
<path d="M8242 3038 c-28 -36 -25 -134 6 -145 22 -9 52 33 52 72 0 67 -31 106
-58 73z"/>
<path d="M1122 3027 c-19 -22 -24 -65 -12 -101 22 -67 70 -50 70 25 0 72 -30
111 -58 76z"/>
<path d="M7457 2978 c-73 -99 -289 -403 -293 -413 -7 -16 32 -49 51 -42 8 4
15 13 15 22 0 32 30 73 66 90 46 22 92 14 127 -23 75 -78 22 -198 -110 -245
-78 -28 -133 -23 -213 21 -85 46 -103 37 -60 -28 28 -42 40 -90 23 -90 -5 0
-16 7 -27 15 -16 12 -23 12 -58 -6 -51 -26 -63 -53 -46 -104 9 -29 23 -45 48
-58 45 -23 113 -18 144 12 20 19 24 20 36 6 8 -10 10 -27 5 -53 -15 -80 -18
-77 66 -80 l76 -3 16 59 c12 44 25 67 49 86 18 14 39 31 46 37 13 11 8 79 -9
127 -15 40 -10 62 16 74 35 16 92 -3 154 -52 l50 -40 37 17 c35 17 37 17 76
-6 22 -12 42 -20 46 -16 3 3 14 31 23 62 13 40 15 62 8 75 -6 10 -16 53 -24
96 -29 164 -76 242 -160 264 -53 14 -69 35 -55 72 10 28 42 51 82 61 15 4 33
14 39 22 16 19 -3 33 -48 33 -18 0 -55 9 -83 20 -69 27 -85 25 -113 -12z"/>
<path d="M1815 2979 c-27 -10 -62 -18 -76 -19 -28 0 -67 -24 -53 -32 5 -3 28
-11 51 -17 47 -13 93 -60 93 -96 0 -18 -8 -25 -43 -33 -79 -20 -142 -101 -174
-225 -20 -77 -23 -233 -5 -265 l13 -22 38 22 c37 21 40 21 81 5 l42 -16 35 36
c56 55 127 78 172 53 18 -9 18 -12 0 -87 -25 -103 -24 -108 11 -123 40 -16 68
-57 83 -120 l12 -50 78 0 79 0 -8 43 c-17 95 -2 124 46 83 36 -30 68 -33 116
-10 62 29 85 114 42 153 -32 30 -56 35 -85 16 -35 -23 -48 -7 -30 36 8 19 24
43 36 53 50 45 8 48 -91 6 -42 -18 -88 -30 -114 -30 -96 0 -214 95 -214 172 0
71 54 138 111 138 42 0 98 -53 105 -101 4 -24 12 -39 21 -39 24 0 53 20 53 37
0 9 -35 64 -77 122 -43 58 -113 157 -156 219 -89 126 -92 128 -192 91z"/>
<path d="M7962 2935 c-7 -14 -12 -54 -12 -89 0 -61 2 -65 34 -90 19 -14 39
-26 45 -26 33 0 20 132 -19 196 -26 41 -33 42 -48 9z"/>
<path d="M1384 2909 c-8 -17 -18 -65 -21 -105 -7 -83 -2 -88 53 -53 33 20 34
23 34 82 0 34 -3 72 -6 85 -9 32 -41 28 -60 -9z"/>
<path d="M2035 2610 c-42 -16 -58 -46 -52 -96 6 -55 41 -96 103 -120 53 -20
143 -15 197 10 72 35 55 105 -23 91 -19 -3 -59 -8 -87 -12 l-53 -6 0 55 c0 33
-5 60 -12 66 -21 16 -51 21 -73 12z"/>
<path d="M7302 2604 c-21 -14 -23 -21 -17 -65 l7 -49 -40 0 c-22 0 -63 5 -91
12 -45 10 -53 9 -71 -7 -48 -44 8 -94 115 -102 91 -8 129 2 175 46 36 34 40
43 40 88 0 36 -5 55 -18 66 -28 26 -73 31 -100 11z"/>
<path d="M2475 1994 c-19 -20 -16 -43 8 -58 20 -13 50 2 55 26 3 16 -23 48
-38 48 -5 0 -16 -7 -25 -16z"/>
<path d="M6880 1996 c-16 -21 -9 -60 13 -64 25 -5 47 16 47 43 0 33 -38 46
-60 21z"/>
<path d="M1991 1941 c-21 -21 -19 -52 4 -71 20 -16 75 -15 86 1 10 16 3 57
-13 76 -16 19 -55 16 -77 -6z"/>
<path d="M7337 1942 c-30 -33 -16 -82 24 -82 31 0 70 40 67 69 -3 22 -9 26
-39 29 -24 2 -40 -3 -52 -16z"/>
<path d="M6986 1912 c-3 -5 -8 -29 -12 -53 -6 -36 -17 -54 -63 -100 -70 -70
-135 -98 -178 -77 -27 13 -28 16 -25 76 6 102 -44 152 -153 152 -122 0 -199
-76 -200 -197 0 -48 -3 -56 -45 -98 -41 -42 -86 -65 -152 -79 -19 -4 -30 -15
-38 -40 -15 -48 -72 -120 -115 -146 -48 -30 -92 -22 -159 28 -117 89 -187 106
-431 105 -318 -1 -462 -39 -663 -177 -28 -20 -55 -36 -58 -36 -4 0 -52 30
-106 66 -101 68 -195 113 -236 114 -13 0 -49 8 -80 17 -44 13 -97 17 -227 17
-263 0 -345 -18 -474 -105 -70 -48 -78 -51 -124 -46 -39 3 -56 11 -87 42 -21
21 -48 60 -60 87 -14 33 -30 52 -48 60 -169 69 -197 96 -204 195 -3 51 -10 70
-34 100 -75 95 -229 112 -299 33 -16 -18 -20 -36 -20 -94 1 -39 -4 -74 -10
-78 -23 -17 -82 -7 -132 22 -62 35 -100 83 -124 153 -14 43 -22 52 -41 52 -18
0 -24 -7 -29 -35 -3 -19 -15 -54 -27 -77 l-22 -41 68 -50 c87 -64 246 -164
316 -199 l56 -27 45 22 c50 24 63 22 104 -22 31 -33 36 -33 77 4 41 36 92 47
130 28 28 -13 29 -14 26 -89 -3 -72 -2 -77 30 -120 37 -49 149 -129 180 -129
11 0 31 9 45 20 33 26 45 25 80 -4 l29 -25 28 30 c30 31 66 45 92 35 13 -5 15
-15 11 -44 -6 -37 -6 -37 71 -89 42 -29 105 -64 139 -78 71 -28 315 -96 357
-98 42 -3 69 37 69 105 1 71 -23 114 -76 139 -50 22 -86 24 -132 5 -34 -14
-34 -15 -37 -86 l-3 -71 -54 27 c-44 22 -57 35 -73 72 -46 104 23 230 145 263
46 12 89 6 149 -21 26 -12 65 -20 98 -20 53 0 58 -3 99 -44 l43 -44 62 5 c76
7 127 -16 178 -78 l35 -42 58 53 c74 67 114 84 180 75 48 -6 52 -4 85 30 35
36 95 60 124 49 8 -3 41 6 73 21 104 50 199 31 276 -54 54 -60 60 -127 17
-199 -23 -37 -75 -72 -108 -72 -23 0 -24 2 -17 49 6 42 3 52 -18 77 -22 25
-32 29 -80 29 -40 0 -63 -6 -84 -21 -65 -47 -86 -166 -39 -221 l25 -29 83 19
c247 57 382 111 468 187 43 38 44 40 32 72 -9 25 -9 34 1 40 24 16 57 7 92
-23 35 -31 36 -31 69 -15 43 20 41 20 93 -5 l43 -21 72 49 c102 68 133 120
133 222 l0 76 49 3 c40 3 57 -2 98 -27 l50 -31 36 30 c42 34 58 36 106 14 19
-10 44 -14 57 -11 57 15 307 170 376 234 l42 39 -24 49 c-14 27 -25 61 -25 77
0 23 -4 28 -24 28 -14 0 -27 -4 -30 -8z"/>
<path d="M6034 1635 c-24 -37 -12 -57 33 -53 30 2 39 8 41 25 2 13 -5 27 -20
37 -30 21 -35 20 -54 -9z"/>
<path d="M3308 1639 c-24 -13 -23 -56 1 -69 48 -25 92 27 55 64 -18 18 -32 20
-56 5z"/>
<path d="M6944 1476 c-189 -128 -518 -296 -784 -401 -369 -145 -639 -238 -727
-250 -30 -4 -58 -14 -68 -25 -15 -17 -13 -19 53 -30 46 -9 120 -11 218 -7 138
5 165 9 364 60 238 60 325 92 479 173 187 99 343 220 448 346 60 73 123 165
123 180 0 19 -32 5 -106 -46z"/>
<path d="M2360 1501 c0 -44 110 -174 251 -295 245 -211 426 -298 831 -402 171
-44 193 -47 343 -51 154 -5 217 2 255 27 23 16 1 25 -117 49 -58 11 -133 34
-167 50 -33 16 -126 50 -206 75 -172 55 -333 119 -525 208 -77 36 -160 73
-185 82 -25 8 -139 74 -254 146 -115 71 -213 130 -218 130 -4 0 -8 -8 -8 -19z"/>
<path d="M4651 855 c-18 -25 -48 -57 -67 -71 -19 -15 -34 -32 -34 -38 0 -7 16
-28 36 -47 19 -18 54 -58 76 -86 22 -29 44 -53 49 -53 5 0 20 23 34 51 15 28
44 70 66 94 35 38 39 47 29 64 -11 21 -138 131 -150 131 -4 0 -21 -20 -39 -45z"/>
</g>
</svg>
